<mxfile host="app.diagrams.net" modified="2022-11-11T02:48:02.777Z" agent="5.0 (Windows NT 10.0; Win64; x64) AppleWebKit/537.36 (KHTML, like Gecko) Chrome/107.0.0.0 Safari/537.36" etag="ZhOzxUx47QbpuVLtgzxB" version="20.5.3" type="github">
  <diagram id="dB8TMNruD3Fy-GJrsDSB" name="Страница 1">
    <mxGraphModel dx="920" dy="868" grid="1" gridSize="10" guides="1" tooltips="1" connect="1" arrows="1" fold="1" page="1" pageScale="1" pageWidth="827" pageHeight="1169" math="0" shadow="0">
      <root>
        <mxCell id="0" />
        <mxCell id="1" parent="0" />
        <mxCell id="aPFewjXXcg2kjlntAhk0-1" value="МАКЕТ ЕСТЬ?" style="strokeWidth=2;html=1;shape=mxgraph.flowchart.decision;whiteSpace=wrap;fillColor=#e1d5e7;strokeColor=#9673a6;" parent="1" vertex="1">
          <mxGeometry x="280" y="70" width="150" height="100" as="geometry" />
        </mxCell>
        <mxCell id="aPFewjXXcg2kjlntAhk0-2" value="" style="endArrow=classic;html=1;rounded=0;exitX=1;exitY=0.5;exitDx=0;exitDy=0;exitPerimeter=0;entryX=0;entryY=0.5;entryDx=0;entryDy=0;startArrow=none;" parent="1" source="aPFewjXXcg2kjlntAhk0-4" target="aPFewjXXcg2kjlntAhk0-3" edge="1">
          <mxGeometry width="50" height="50" relative="1" as="geometry">
            <mxPoint x="380" y="410" as="sourcePoint" />
            <mxPoint x="480" y="120" as="targetPoint" />
          </mxGeometry>
        </mxCell>
        <mxCell id="aPFewjXXcg2kjlntAhk0-3" value="ПОЛУЧИТЬ МАКЕТ ЗАКАЗЧИКА (МЗ)" style="shape=document;whiteSpace=wrap;html=1;boundedLbl=1;fillColor=#dae8fc;strokeColor=#6c8ebf;" parent="1" vertex="1">
          <mxGeometry x="560" y="80" width="150" height="80" as="geometry" />
        </mxCell>
        <mxCell id="aPFewjXXcg2kjlntAhk0-4" value="ДА" style="text;html=1;strokeColor=none;fillColor=none;align=center;verticalAlign=middle;whiteSpace=wrap;rounded=0;" parent="1" vertex="1">
          <mxGeometry x="460" y="105" width="60" height="30" as="geometry" />
        </mxCell>
        <mxCell id="aPFewjXXcg2kjlntAhk0-5" value="" style="endArrow=none;html=1;rounded=0;exitX=1;exitY=0.5;exitDx=0;exitDy=0;exitPerimeter=0;entryX=0;entryY=0.5;entryDx=0;entryDy=0;" parent="1" source="aPFewjXXcg2kjlntAhk0-1" target="aPFewjXXcg2kjlntAhk0-4" edge="1">
          <mxGeometry width="50" height="50" relative="1" as="geometry">
            <mxPoint x="430" y="120" as="sourcePoint" />
            <mxPoint x="560" y="120" as="targetPoint" />
          </mxGeometry>
        </mxCell>
        <mxCell id="aPFewjXXcg2kjlntAhk0-6" value="ОПРЕДЕЛИТЬ ТИП ПРОДУКЦИИ" style="strokeWidth=2;html=1;shape=mxgraph.flowchart.decision;whiteSpace=wrap;fillColor=#e1d5e7;strokeColor=#9673a6;" parent="1" vertex="1">
          <mxGeometry x="280" y="240" width="150" height="100" as="geometry" />
        </mxCell>
        <mxCell id="aPFewjXXcg2kjlntAhk0-10" value="" style="endArrow=classic;html=1;rounded=0;exitX=0.5;exitY=1;exitDx=0;exitDy=0;exitPerimeter=0;entryX=0.5;entryY=0;entryDx=0;entryDy=0;entryPerimeter=0;" parent="1" source="aPFewjXXcg2kjlntAhk0-1" target="aPFewjXXcg2kjlntAhk0-6" edge="1">
          <mxGeometry width="50" height="50" relative="1" as="geometry">
            <mxPoint x="380" y="400" as="sourcePoint" />
            <mxPoint x="430" y="350" as="targetPoint" />
          </mxGeometry>
        </mxCell>
        <mxCell id="BCxUqAkQcN2yg3ZMG6-M-1" value="Самостоятельное формирование заявки Менеджером" style="rounded=1;whiteSpace=wrap;html=1;fillColor=#ffe6cc;strokeColor=#d79b00;" vertex="1" parent="1">
          <mxGeometry x="10" y="350" width="140" height="60" as="geometry" />
        </mxCell>
        <mxCell id="BCxUqAkQcN2yg3ZMG6-M-2" value="" style="endArrow=classic;html=1;rounded=0;exitX=0;exitY=0.5;exitDx=0;exitDy=0;exitPerimeter=0;entryX=0.5;entryY=0;entryDx=0;entryDy=0;startArrow=none;" edge="1" parent="1" source="BCxUqAkQcN2yg3ZMG6-M-3" target="BCxUqAkQcN2yg3ZMG6-M-1">
          <mxGeometry width="50" height="50" relative="1" as="geometry">
            <mxPoint x="200" y="400" as="sourcePoint" />
            <mxPoint x="250" y="350" as="targetPoint" />
            <Array as="points">
              <mxPoint x="80" y="290" />
            </Array>
          </mxGeometry>
        </mxCell>
        <mxCell id="BCxUqAkQcN2yg3ZMG6-M-3" value="Типовая" style="text;html=1;strokeColor=none;fillColor=none;align=center;verticalAlign=middle;whiteSpace=wrap;rounded=0;" vertex="1" parent="1">
          <mxGeometry x="180" y="275" width="60" height="30" as="geometry" />
        </mxCell>
        <mxCell id="BCxUqAkQcN2yg3ZMG6-M-4" value="" style="endArrow=none;html=1;rounded=0;exitX=0;exitY=0.5;exitDx=0;exitDy=0;exitPerimeter=0;entryX=1;entryY=0.5;entryDx=0;entryDy=0;" edge="1" parent="1" source="aPFewjXXcg2kjlntAhk0-6" target="BCxUqAkQcN2yg3ZMG6-M-3">
          <mxGeometry width="50" height="50" relative="1" as="geometry">
            <mxPoint x="280" y="290" as="sourcePoint" />
            <mxPoint x="140" y="290" as="targetPoint" />
          </mxGeometry>
        </mxCell>
        <mxCell id="BCxUqAkQcN2yg3ZMG6-M-5" value="Заявка в Asystem. Заявка формируется из Шаблона технологического процесса" style="shape=document;whiteSpace=wrap;html=1;boundedLbl=1;fillColor=#dae8fc;strokeColor=#6c8ebf;" vertex="1" parent="1">
          <mxGeometry x="190" y="350" width="170" height="80" as="geometry" />
        </mxCell>
        <mxCell id="BCxUqAkQcN2yg3ZMG6-M-6" value="" style="endArrow=classic;html=1;rounded=0;exitX=1;exitY=0.5;exitDx=0;exitDy=0;entryX=-0.024;entryY=0.378;entryDx=0;entryDy=0;entryPerimeter=0;" edge="1" parent="1" source="BCxUqAkQcN2yg3ZMG6-M-1" target="BCxUqAkQcN2yg3ZMG6-M-5">
          <mxGeometry width="50" height="50" relative="1" as="geometry">
            <mxPoint x="200" y="380" as="sourcePoint" />
            <mxPoint x="120" y="480" as="targetPoint" />
          </mxGeometry>
        </mxCell>
      </root>
    </mxGraphModel>
  </diagram>
</mxfile>
